# xmcd CD database file
#
# Track frame offsets:
#	150
#	30439
#	89969
#
# Disc length: 1200 seconds
#
# Revision: 0
# Processed by: cddbd v1.5.1PL2 Copyright (c) Steve Scherf et al.
# Submitted via: CDex 1.51
#
DISCID=1f04ae03
DTITLE=アルファ - Passion
DYEAR=2005
DGENRE=Pop
TTITLE0=Passion
TTITLE1=DATA
TTITLE2=DATA
EXTD=YEAR: 2005
EXTT0=
EXTT1=
EXTT2=
PLAYORDER=
